<svg width="24" height="24" viewBox="0 0 24 24" fill="none" xmlns="http://www.w3.org/2000/svg">
<path d="M15.7101 12.0057L7.21811 3.27871C7.1482 3.20838 7.09292 3.12488 7.05549 3.03305C7.01805 2.94122 6.9992 2.84287 7.00003 2.74371C7.00085 2.64454 7.02133 2.54653 7.06029 2.45533C7.09924 2.36413 7.15589 2.28157 7.22697 2.21241C7.29804 2.14325 7.38213 2.08888 7.47436 2.05243C7.56658 2.01598 7.66513 1.99819 7.76428 2.00007C7.86343 2.00196 7.96122 2.02349 8.05199 2.06343C8.14277 2.10336 8.22472 2.16089 8.29311 2.23271L17.2931 11.4827C17.4293 11.6227 17.5056 11.8104 17.5056 12.0057C17.5056 12.2011 17.4293 12.3887 17.2931 12.5287L8.29311 21.7787C8.22472 21.8505 8.14277 21.9081 8.05199 21.948C7.96122 21.9879 7.86343 22.0094 7.76428 22.0113C7.66513 22.0132 7.56658 21.9954 7.47436 21.959C7.38213 21.9225 7.29804 21.8682 7.22697 21.799C7.15589 21.7298 7.09924 21.6473 7.06029 21.5561C7.02133 21.4649 7.00085 21.3669 7.00003 21.2677C6.9992 21.1685 7.01805 21.0702 7.05549 20.9784C7.09292 20.8865 7.1482 20.803 7.21811 20.7327L15.7101 12.0057Z" fill="#093642"/>
</svg>
