<svg width="14" height="14" viewBox="0 0 14 14" fill="none" xmlns="http://www.w3.org/2000/svg">
<g clip-path="url(#clip0_125_128)">
<path d="M2.20841 2.73977C2.20846 2.53397 2.28018 2.33462 2.41124 2.17595C2.5423 2.01729 2.72453 1.90922 2.92662 1.87032C3.1287 1.83141 3.33803 1.8641 3.51863 1.96276C3.69924 2.06143 3.83984 2.21991 3.91629 2.41098L3.99429 2.60489C3.66028 2.84911 3.40133 3.18199 3.24679 3.56581C3.02702 4.10456 3.02314 4.70724 3.23596 5.24877C3.25595 5.2994 3.28592 5.34549 3.32407 5.38431C3.36222 5.42313 3.40779 5.45388 3.45806 5.47475C3.50834 5.49562 3.56229 5.50617 3.61672 5.50578C3.67115 5.50539 3.72495 5.49406 3.77491 5.47248L7.00325 4.08256C7.10017 4.0409 7.17708 3.96318 7.21772 3.86583C7.25835 3.76848 7.25953 3.65914 7.221 3.56094C7.11774 3.29446 6.96244 3.05122 6.76416 2.84541C6.56589 2.6396 6.32861 2.47535 6.06616 2.36223C5.64454 2.18131 5.17496 2.14474 4.73041 2.25823L4.67083 2.10927C4.52432 1.74278 4.25472 1.43878 3.90838 1.2495C3.56203 1.06023 3.16058 0.997512 2.77301 1.07213C2.38543 1.14675 2.03596 1.35404 1.78465 1.65837C1.53334 1.96271 1.39588 2.34508 1.39591 2.73977V6.45831H1.2605C1.15275 6.45831 1.04942 6.50111 0.973236 6.5773C0.897049 6.65349 0.854248 6.75682 0.854248 6.86456C0.854248 6.9723 0.897049 7.07564 0.973236 7.15182C1.04942 7.22801 1.15275 7.27081 1.2605 7.27081H1.39591V7.4631C1.39591 7.66623 1.39591 7.78539 1.40458 7.9181C1.4815 9.12981 2.13583 10.2484 3.08483 10.9796C3.07715 10.9915 3.0701 11.0038 3.06371 11.0164L2.52204 12.0998C2.4749 12.196 2.46773 12.3071 2.50209 12.4086C2.53644 12.5101 2.60954 12.594 2.70544 12.6419C2.80135 12.6898 2.9123 12.6978 3.01411 12.6642C3.11591 12.6307 3.20033 12.5582 3.24896 12.4627L3.77329 11.4146C4.20969 11.6374 4.68344 11.7779 5.17079 11.8289C5.3035 11.8425 5.38421 11.8452 5.52179 11.8506H5.52558C5.92641 11.8658 6.31858 11.875 6.67716 11.875C7.03575 11.875 7.42791 11.8658 7.82875 11.8506H7.83254C7.97012 11.8452 8.05137 11.8425 8.18354 11.8289C8.67088 11.7779 9.14464 11.6374 9.58104 11.4146L10.1054 12.4632C10.1292 12.511 10.1623 12.5535 10.2026 12.5885C10.2429 12.6234 10.2897 12.6501 10.3403 12.667C10.391 12.6839 10.4444 12.6906 10.4976 12.6868C10.5509 12.6831 10.6028 12.6688 10.6506 12.645C10.6983 12.6211 10.7409 12.5881 10.7758 12.5477C10.8108 12.5074 10.8375 12.4606 10.8543 12.41C10.8712 12.3594 10.878 12.3059 10.8742 12.2527C10.8704 12.1995 10.8562 12.1475 10.8323 12.0998L10.2906 11.0164C10.2844 11.0038 10.2775 10.9915 10.27 10.9796C11.2185 10.2484 11.8734 9.12927 11.9503 7.9181C11.9584 7.78539 11.9584 7.66623 11.9584 7.4631V7.44252C11.9584 7.41002 11.9584 7.37589 11.9562 7.34502C11.9547 7.32019 11.9522 7.29544 11.9487 7.27081H12.0938C12.2016 7.27081 12.3049 7.22801 12.3811 7.15182C12.4573 7.07564 12.5001 6.9723 12.5001 6.86456C12.5001 6.75682 12.4573 6.65349 12.3811 6.5773C12.3049 6.50111 12.2016 6.45831 12.0938 6.45831H2.20841V2.73977Z" fill="#093642"/>
</g>
<defs>
<clipPath id="clip0_125_128">
<rect width="13" height="13" fill="white" transform="translate(0.3125 0.5)"/>
</clipPath>
</defs>
</svg>
