<svg width="96" height="292" viewBox="0 0 96 292" fill="none" xmlns="http://www.w3.org/2000/svg">
<path fill-rule="evenodd" clip-rule="evenodd" d="M36.7631 207.143C38.0364 208.777 39.6218 210.119 41.5193 211.17C44.1817 212.603 47.2947 213.32 50.8582 213.32C54.4217 213.32 57.5347 212.583 60.1971 211.108C62.6905 209.727 64.645 207.844 66.0606 205.457C83.3965 210.998 96.0004 227.806 96.0004 247.681C96.0004 272.07 77.02 291.841 53.6066 291.841C30.1932 291.841 11.2129 272.07 11.2129 247.681C11.2129 229.526 21.7296 213.931 36.7631 207.143Z" fill="#E4E8E9"/>
<path d="M50.3052 167.394C51.2883 167.394 52.3123 167.455 53.3772 167.578V191.355C55.5072 191.192 57.1456 190.516 58.2924 189.328C59.3984 188.099 59.9513 186.604 59.9513 184.843C59.9513 182.221 58.8454 180.399 56.6336 179.375V168.193C58.8864 168.766 60.9139 169.81 62.7161 171.326C64.5184 172.801 65.9315 174.664 66.9555 176.917C67.9795 179.17 68.4915 181.689 68.4915 184.474C68.4915 187.833 67.7747 190.823 66.3411 193.444C64.9075 196.066 62.8595 198.114 60.1971 199.588C57.5347 201.063 54.4217 201.8 50.8582 201.8C47.2947 201.8 44.1817 201.084 41.5193 199.65C38.8569 198.175 36.8089 196.127 35.3753 193.506C33.9417 190.884 33.2248 187.874 33.2248 184.474C33.2248 181.156 33.9212 178.207 35.3138 175.627C36.7065 173.046 38.693 171.039 41.2735 169.606C43.854 168.131 46.8646 167.394 50.3052 167.394ZM47.5404 178.146C45.7382 178.146 44.3046 178.76 43.2396 179.989C42.1746 181.218 41.6422 182.754 41.6422 184.597C41.6422 186.358 42.1542 187.853 43.1782 189.082C44.2022 190.27 45.6562 191.007 47.5404 191.294V178.146ZM68.4915 147.904C68.4915 150.894 67.9795 153.557 66.9555 155.892C65.9315 158.226 64.5389 160.069 62.7776 161.421C60.9753 162.773 58.9683 163.531 56.7564 163.694V153.311C57.9443 153.188 58.9069 152.635 59.6441 151.652C60.3814 150.669 60.7501 149.461 60.7501 148.027C60.7501 146.716 60.5043 145.713 60.0128 145.017C59.4803 144.279 58.8045 143.911 57.9852 143.911C57.0022 143.911 56.2854 144.423 55.8348 145.447C55.3433 146.471 54.8108 148.13 54.2374 150.423C53.664 152.881 53.07 154.929 52.4556 156.567C51.8003 158.206 50.7967 159.619 49.4451 160.807C48.0524 161.995 46.1887 162.589 43.854 162.589C41.8879 162.589 40.1062 162.056 38.5087 160.991C36.8703 159.885 35.5801 158.288 34.638 156.199C33.6959 154.069 33.2248 151.55 33.2248 148.642C33.2248 144.341 34.2898 140.962 36.4197 138.504C38.5497 136.005 41.3759 134.572 44.8985 134.203V143.911C43.7106 144.075 42.7686 144.607 42.0722 145.508C41.3759 146.368 41.0278 147.515 41.0278 148.949C41.0278 150.178 41.2735 151.12 41.765 151.775C42.2156 152.43 42.8505 152.758 43.6697 152.758C44.6527 152.758 45.39 152.246 45.8815 151.222C46.3731 150.157 46.8646 148.519 47.3561 146.307C48.0115 143.767 48.6668 141.699 49.3222 140.101C49.9366 138.504 50.9606 137.111 52.3942 135.923C53.7868 134.695 55.671 134.06 58.0467 134.019C60.0537 134.019 61.856 134.592 63.4534 135.739C65.0099 136.845 66.2387 138.463 67.1398 140.593C68.041 142.682 68.4915 145.119 68.4915 147.904ZM59.0912 108.483H68V113.829C68 117.638 67.0784 120.607 65.2352 122.737C63.351 124.867 60.2995 125.932 56.0806 125.932H42.4409V130.11H33.7164V125.932H25.3605L25.3605 115.426H33.7164V108.545H42.4409V115.426H56.2035C57.2275 115.426 57.9648 115.18 58.4153 114.689C58.8659 114.197 59.0912 113.378 59.0912 112.231V108.483ZM50.7967 104.72C47.2742 104.72 44.1817 104.065 41.5193 102.754C38.8569 101.402 36.8089 99.5795 35.3753 97.2857C33.9417 94.992 33.2248 92.432 33.2248 89.6057C33.2248 87.1891 33.7164 85.0796 34.6994 83.2774C35.6825 81.4342 36.9727 80.021 38.5701 79.038H33.7164V68.5317H68V79.038H63.1462C64.7437 80.062 66.0339 81.4956 67.017 83.3388C68 85.1411 68.4915 87.2505 68.4915 89.6672C68.4915 92.4524 67.7747 94.992 66.3411 97.2857C64.8666 99.5795 62.7981 101.402 60.1357 102.754C57.4323 104.065 54.3193 104.72 50.7967 104.72ZM50.8582 79.038C48.2367 79.038 46.1682 79.7753 44.6527 81.2498C43.1372 82.6834 42.3794 84.4447 42.3794 86.5337C42.3794 88.6227 43.1372 90.4044 44.6527 91.879C46.1273 93.3126 48.1753 94.0294 50.7967 94.0294C53.4182 94.0294 55.5072 93.3126 57.0636 91.879C58.5792 90.4044 59.3369 88.6227 59.3369 86.5337C59.3369 84.4447 58.5792 82.6834 57.0636 81.2498C55.5481 79.7753 53.4796 79.038 50.8582 79.038ZM59.0912 41.823H68V47.1683C68 50.9776 67.0784 53.9472 65.2352 56.0771C63.351 58.207 60.2995 59.272 56.0806 59.272H42.4409V63.4499H33.7164V59.272H25.3605L25.3605 48.7657H33.7164V41.8844H42.4409V48.7657H56.2035C57.2275 48.7657 57.9648 48.52 58.4153 48.0285C58.8659 47.5369 59.0912 46.7177 59.0912 45.5708V41.823ZM50.3052 3.65329C51.2883 3.65329 52.3123 3.71473 53.3772 3.83761V27.615C55.5072 27.4511 57.1456 26.7753 58.2924 25.5874C59.3984 24.3586 59.9513 22.8636 59.9513 21.1023C59.9513 18.4809 58.8454 16.6581 56.6336 15.6341V4.45201C58.8864 5.02545 60.9139 6.06993 62.7161 7.58546C64.5184 9.06002 65.9315 10.9237 66.9555 13.1765C67.9795 15.4293 68.4915 17.9484 68.4915 20.7337C68.4915 24.0924 67.7747 27.0825 66.3411 29.7039C64.9075 32.3254 62.8595 34.3734 60.1971 35.8479C57.5347 37.3225 54.4217 38.0598 50.8582 38.0598C47.2947 38.0598 44.1817 37.343 41.5193 35.9094C38.8569 34.4348 36.8089 32.3868 35.3753 29.7654C33.9417 27.1439 33.2248 24.1334 33.2248 20.7337C33.2248 17.4159 33.9212 14.4668 35.3138 11.8863C36.7065 9.30578 38.693 7.29874 41.2735 5.86513C43.854 4.39057 46.8646 3.65329 50.3052 3.65329ZM47.5404 14.4053C45.7382 14.4053 44.3046 15.0197 43.2396 16.2485C42.1746 17.4773 41.6422 19.0133 41.6422 20.8565C41.6422 22.6178 42.1542 24.1129 43.1782 25.3417C44.2022 26.5295 45.6562 27.2668 47.5404 27.5535V14.4053Z" fill="#E4E8E9"/>
<path d="M33.3477 232.766C33.3477 228.506 34.638 225.127 37.2185 222.628C39.7989 220.089 43.383 218.819 47.9705 218.819H68V229.264H49.3836C47.1718 229.264 45.4719 229.858 44.2841 231.046C43.0553 232.193 42.4409 233.79 42.4409 235.838C42.4409 237.886 43.0553 239.504 44.2841 240.692C45.4719 241.839 47.1718 242.412 49.3836 242.412H68V252.857H49.3836C47.1718 252.857 45.4719 253.451 44.2841 254.639C43.0553 255.786 42.4409 257.383 42.4409 259.431C42.4409 261.479 43.0553 263.097 44.2841 264.285C45.4719 265.432 47.1718 266.005 49.3836 266.005H68V276.512H33.7164V266.005H38.0172C36.5836 264.94 35.4572 263.548 34.638 261.827C33.7778 260.107 33.3477 258.161 33.3477 255.99C33.3477 253.41 33.9007 251.116 35.0066 249.109C36.1125 247.061 37.6895 245.464 39.7375 244.317C37.8533 243.129 36.3173 241.511 35.1295 239.463C33.9417 237.415 33.3477 235.183 33.3477 232.766Z" fill="#F6F6F7"/>
</svg>
