<svg width="134" height="44" viewBox="0 0 134 44" fill="none" xmlns="http://www.w3.org/2000/svg">
<path fill-rule="evenodd" clip-rule="evenodd" d="M38.7638 16.727C38.0404 17.303 37.4438 18.015 36.9742 18.8629C36.3171 20.0832 35.9886 21.51 35.9886 23.1433C35.9886 24.7766 36.3265 26.2033 37.0024 27.4236C37.6438 28.5818 38.522 29.4863 39.637 30.1371C37.1434 38.155 29.4028 44 20.2401 44C9.06178 44 0 35.3006 0 24.5695C0 13.8384 9.06178 5.13904 20.2401 5.13904C28.5114 5.13904 35.6239 9.90212 38.7638 16.727Z" fill="#093642"/>
<path d="M57.0384 22.8899C57.0384 23.3405 57.0102 23.8098 56.9539 24.2979H46.0559C46.131 25.2741 46.4408 26.0251 46.9852 26.5507C47.5484 27.0576 48.2336 27.311 49.0409 27.311C50.2424 27.311 51.0778 26.8041 51.5471 25.7904H56.6723C56.4094 26.8229 55.9307 27.7522 55.2361 28.5782C54.5603 29.4043 53.7061 30.0519 52.6735 30.5213C51.641 30.9906 50.4864 31.2253 49.2099 31.2253C47.6704 31.2253 46.3 30.8967 45.0985 30.2397C43.897 29.5826 42.9583 28.6439 42.2825 27.4237C41.6066 26.2034 41.2687 24.7766 41.2687 23.1433C41.2687 21.51 41.5972 20.0833 42.2543 18.863C42.9302 17.6427 43.8688 16.7041 45.0703 16.047C46.2718 15.3899 47.6517 15.0614 49.2099 15.0614C50.7305 15.0614 52.0822 15.3805 53.2649 16.0188C54.4476 16.6571 55.3675 17.5676 56.0246 18.7504C56.7004 19.9331 57.0384 21.3129 57.0384 22.8899ZM52.1103 21.6227C52.1103 20.7967 51.8287 20.1396 51.2655 19.6515C50.7023 19.1634 49.9983 18.9193 49.1535 18.9193C48.3463 18.9193 47.661 19.154 47.0978 19.6233C46.5534 20.0927 46.2155 20.7591 46.0841 21.6227H52.1103ZM65.971 31.2253C64.6006 31.2253 63.3803 30.9906 62.3102 30.5213C61.2401 30.0519 60.3953 29.4136 59.7758 28.6064C59.1563 27.7804 58.809 26.8605 58.7339 25.8467H63.493C63.5493 26.3911 63.8027 26.8323 64.2533 27.1702C64.7038 27.5081 65.2577 27.6771 65.9147 27.6771C66.5155 27.6771 66.9754 27.5645 67.2946 27.3392C67.6325 27.0951 67.8014 26.7854 67.8014 26.4099C67.8014 25.9593 67.5668 25.6308 67.0974 25.4243C66.6281 25.199 65.8678 24.955 64.8165 24.6921C63.6901 24.4293 62.7514 24.1571 62.0005 23.8755C61.2495 23.5751 60.6019 23.1152 60.0574 22.4957C59.513 21.8574 59.2408 21.0032 59.2408 19.9331C59.2408 19.032 59.4848 18.2153 59.9729 17.4832C60.4798 16.7322 61.212 16.1409 62.1694 15.7091C63.1456 15.2773 64.3002 15.0614 65.6331 15.0614C67.6043 15.0614 69.1531 15.5495 70.2795 16.5257C71.4247 17.5019 72.0818 18.7973 72.2507 20.4118H67.8014C67.7264 19.8674 67.4823 19.4356 67.0693 19.1164C66.675 18.7973 66.1494 18.6377 65.4923 18.6377C64.9291 18.6377 64.4973 18.7504 64.197 18.9756C63.8966 19.1821 63.7464 19.4731 63.7464 19.8486C63.7464 20.2992 63.9811 20.6371 64.4504 20.8624C64.9385 21.0876 65.6894 21.3129 66.7032 21.5382C67.8672 21.8386 68.8152 22.139 69.5474 22.4393C70.2795 22.7209 70.9178 23.1903 71.4623 23.8473C72.0255 24.4856 72.3165 25.3492 72.3352 26.4381C72.3352 27.358 72.0724 28.184 71.5467 28.9162C71.0399 29.6295 70.2983 30.1927 69.3221 30.6058C68.3647 31.0188 67.2476 31.2253 65.971 31.2253ZM84.039 26.9168V31H81.5891C79.8432 31 78.4821 30.5776 77.5059 29.7328C76.5297 28.8692 76.0416 27.4706 76.0416 25.5369V19.2854H74.1267V15.2867H76.0416V11.4569H80.857V15.2867H84.0109V19.2854H80.857V25.5933C80.857 26.0626 80.9696 26.4005 81.1949 26.607C81.4202 26.8135 81.7956 26.9168 82.3213 26.9168H84.039ZM85.7638 23.1152C85.7638 21.5007 86.0642 20.0833 86.665 18.863C87.2845 17.6427 88.1199 16.7041 89.1712 16.047C90.2225 15.3899 91.3959 15.0614 92.6912 15.0614C93.7989 15.0614 94.7657 15.2867 95.5917 15.7372C96.4365 16.1878 97.0842 16.7792 97.5348 17.5113V15.2867H102.35V31H97.5348V28.7754C97.0654 29.5075 96.4084 30.0989 95.5636 30.5494C94.7375 31 93.7707 31.2253 92.6631 31.2253C91.3865 31.2253 90.2225 30.8967 89.1712 30.2397C88.1199 29.5638 87.2845 28.6158 86.665 27.3955C86.0642 26.1565 85.7638 24.7297 85.7638 23.1152ZM97.5348 23.1433C97.5348 21.9418 97.1968 20.9938 96.521 20.2992C95.8639 19.6046 95.0567 19.2572 94.0992 19.2572C93.1418 19.2572 92.3251 19.6046 91.6493 20.2992C90.9922 20.975 90.6637 21.9137 90.6637 23.1152C90.6637 24.3167 90.9922 25.2741 91.6493 25.9875C92.3251 26.6821 93.1418 27.0294 94.0992 27.0294C95.0567 27.0294 95.8639 26.6821 96.521 25.9875C97.1968 25.2929 97.5348 24.3448 97.5348 23.1433ZM114.592 26.9168V31H112.142C110.396 31 109.035 30.5776 108.058 29.7328C107.082 28.8692 106.594 27.4706 106.594 25.5369V19.2854H104.679V15.2867H106.594V11.4569H111.41V15.2867H114.563V19.2854H111.41V25.5933C111.41 26.0626 111.522 26.4005 111.747 26.607C111.973 26.8135 112.348 26.9168 112.874 26.9168H114.592ZM132.086 22.8899C132.086 23.3405 132.058 23.8098 132.002 24.2979H121.104C121.179 25.2741 121.489 26.0251 122.033 26.5507C122.596 27.0576 123.281 27.311 124.089 27.311C125.29 27.311 126.126 26.8041 126.595 25.7904H131.72C131.457 26.8229 130.978 27.7522 130.284 28.5782C129.608 29.4043 128.754 30.0519 127.721 30.5213C126.689 30.9906 125.534 31.2253 124.258 31.2253C122.718 31.2253 121.348 30.8967 120.146 30.2397C118.945 29.5826 118.006 28.6439 117.33 27.4237C116.654 26.2034 116.316 24.7766 116.316 23.1433C116.316 21.51 116.645 20.0833 117.302 18.863C117.978 17.6427 118.917 16.7041 120.118 16.047C121.32 15.3899 122.699 15.0614 124.258 15.0614C125.778 15.0614 127.13 15.3805 128.313 16.0188C129.495 16.6571 130.415 17.5676 131.072 18.7504C131.748 19.9331 132.086 21.3129 132.086 22.8899ZM127.158 21.6227C127.158 20.7967 126.876 20.1396 126.313 19.6515C125.75 19.1634 125.046 18.9193 124.201 18.9193C123.394 18.9193 122.709 19.154 122.146 19.6233C121.601 20.0927 121.263 20.7591 121.132 21.6227H127.158Z" fill="#093642"/>
<path d="M27.0759 15.1177C29.0284 15.1177 30.5772 15.7091 31.7224 16.8918C32.8863 18.0745 33.4683 19.7172 33.4683 21.8198V31H28.6811V22.4675C28.6811 21.4537 28.4088 20.6746 27.8644 20.1302C27.3388 19.567 26.6066 19.2854 25.6679 19.2854C24.7293 19.2854 23.9877 19.567 23.4433 20.1302C22.9176 20.6746 22.6548 21.4537 22.6548 22.4675V31H17.8676V22.4675C17.8676 21.4537 17.5954 20.6746 17.0509 20.1302C16.5253 19.567 15.7931 19.2854 14.8545 19.2854C13.9158 19.2854 13.1742 19.567 12.6298 20.1302C12.1042 20.6746 11.8413 21.4537 11.8413 22.4675V31H7.02595V15.2867H11.8413V17.2579C12.3294 16.6008 12.9677 16.0845 13.7562 15.7091C14.5447 15.3148 15.4364 15.1177 16.4314 15.1177C17.6141 15.1177 18.6655 15.3712 19.5854 15.878C20.524 16.3849 21.2562 17.1077 21.7818 18.0464C22.3263 17.1828 23.0678 16.4788 24.0065 15.9344C24.9452 15.3899 25.9683 15.1177 27.0759 15.1177Z" fill="white"/>
</svg>
