<svg width="20" height="20" viewBox="0 0 20 20" fill="none" xmlns="http://www.w3.org/2000/svg">
<path d="M3.33317 16.6667C2.87484 16.6667 2.48234 16.5034 2.15567 16.1767C1.82901 15.85 1.66595 15.4578 1.66651 15V5.00004C1.66651 4.54171 1.82984 4.14921 2.15651 3.82254C2.48317 3.49588 2.87539 3.33282 3.33317 3.33338H16.6665C17.1248 3.33338 17.5173 3.49671 17.844 3.82338C18.1707 4.15004 18.3337 4.54226 18.3332 5.00004V15C18.3332 15.4584 18.1698 15.8509 17.8432 16.1775C17.5165 16.5042 17.1243 16.6673 16.6665 16.6667H3.33317ZM9.99984 10.8334L16.6665 6.66671V5.00004L9.99984 9.16671L3.33317 5.00004V6.66671L9.99984 10.8334Z" fill="#093642"/>
</svg>
