<svg width="12" height="12" viewBox="0 0 12 12" fill="none" xmlns="http://www.w3.org/2000/svg">
<path d="M8.35506 6.00288L4.10906 1.63938C4.0741 1.60422 4.04646 1.56247 4.02774 1.51656C4.00903 1.47064 3.9996 1.42147 4.00001 1.37188C4.00042 1.3223 4.01067 1.27329 4.03014 1.2277C4.04962 1.1821 4.07795 1.14081 4.11348 1.10623C4.14902 1.07166 4.19106 1.04447 4.23718 1.02624C4.28329 1.00802 4.33256 0.999124 4.38214 1.00007C4.43171 1.00101 4.48061 1.01178 4.526 1.03174C4.57138 1.05171 4.61236 1.08048 4.64656 1.11638L9.14656 5.74138C9.21467 5.81139 9.25278 5.90521 9.25278 6.00288C9.25278 6.10056 9.21467 6.19438 9.14656 6.26438L4.64656 10.8894C4.61236 10.9253 4.57138 10.9541 4.526 10.974C4.48061 10.994 4.43171 11.0048 4.38214 11.0057C4.33256 11.0066 4.28329 10.9977 4.23718 10.9795C4.19106 10.9613 4.14902 10.9341 4.11348 10.8995C4.07795 10.865 4.04962 10.8237 4.03014 10.7781C4.01067 10.7325 4.00042 10.6835 4.00001 10.6339C3.9996 10.5843 4.00903 10.5351 4.02774 10.4892C4.04646 10.4433 4.0741 10.4015 4.10906 10.3664L8.35506 6.00288Z" fill="#5E6D71"/>
</svg>
