<svg width="12" height="12" viewBox="0 0 12 12" fill="none" xmlns="http://www.w3.org/2000/svg">
<path d="M3.89763 6.00298L8.14363 10.3665C8.17859 10.4016 8.20623 10.4434 8.22494 10.4893C8.24366 10.5352 8.25308 10.5844 8.25267 10.634C8.25226 10.6836 8.24202 10.7326 8.22254 10.7782C8.20307 10.8238 8.17474 10.865 8.1392 10.8996C8.10366 10.9342 8.06162 10.9614 8.01551 10.9796C7.96939 10.9978 7.92012 11.0067 7.87055 11.0058C7.82097 11.0048 7.77208 10.9941 7.72669 10.9741C7.6813 10.9542 7.64033 10.9254 7.60613 10.8895L3.10613 6.26448C3.03802 6.19447 2.99991 6.10065 2.99991 6.00298C2.99991 5.9053 3.03802 5.81148 3.10613 5.74148L7.60613 1.11648C7.64033 1.08057 7.6813 1.0518 7.72669 1.03184C7.77208 1.01187 7.82097 1.0011 7.87055 1.00016C7.92012 0.999216 7.96939 1.00811 8.01551 1.02634C8.06162 1.04456 8.10366 1.07175 8.1392 1.10633C8.17474 1.1409 8.20307 1.18219 8.22254 1.22779C8.24202 1.27339 8.25226 1.32239 8.25267 1.37198C8.25308 1.42156 8.24366 1.47073 8.22494 1.51665C8.20623 1.56256 8.17859 1.60431 8.14363 1.63948L3.89763 6.00298Z" fill="#5E6D71"/>
</svg>
