<svg width="14" height="14" viewBox="0 0 14 14" fill="none" xmlns="http://www.w3.org/2000/svg">
<g clip-path="url(#clip0_125_135)">
<path fill-rule="evenodd" clip-rule="evenodd" d="M4.91992 2.66669C4.63349 2.66678 4.35217 2.74258 4.10447 2.8864C3.85677 3.03023 3.65149 3.23697 3.50942 3.48569L2.42988 5.37502H1.79992C1.74246 5.37502 1.68735 5.39785 1.64671 5.43848C1.60608 5.47911 1.58325 5.53422 1.58325 5.59169V5.84898C1.58315 5.9457 1.6154 6.03968 1.67489 6.11595C1.73437 6.19222 1.81767 6.2464 1.9115 6.26985L1.9245 6.27256C1.69832 6.74201 1.61237 7.26674 1.67696 7.78381L2.06967 10.926C2.10242 11.1881 2.22976 11.4291 2.42776 11.6039C2.62576 11.7787 2.88078 11.8751 3.14488 11.875H3.20825C3.49557 11.875 3.77112 11.7609 3.97428 11.5577C4.17745 11.3546 4.29159 11.079 4.29159 10.7917H9.70825C9.70825 11.079 9.82239 11.3546 10.0256 11.5577C10.2287 11.7609 10.5043 11.875 10.7916 11.875H10.855C11.1191 11.8751 11.3741 11.7787 11.5721 11.6039C11.7701 11.4291 11.8974 11.1881 11.9302 10.926L12.3229 7.78435C12.3875 7.26728 12.3015 6.74255 12.0753 6.2731L12.0883 6.26985C12.1822 6.2464 12.2655 6.19222 12.3249 6.11595C12.3844 6.03968 12.4167 5.9457 12.4166 5.84898V5.59169C12.4166 5.53422 12.3938 5.47911 12.3531 5.43848C12.3125 5.39785 12.2574 5.37502 12.1999 5.37502H11.57L10.4904 3.48569C10.3484 3.23697 10.1431 3.03023 9.89537 2.8864C9.64766 2.74258 9.36635 2.66678 9.07992 2.66669H4.92046H4.91992ZM10.4785 5.64802L9.55009 4.02302C9.50268 3.94004 9.43417 3.87107 9.3515 3.82312C9.26883 3.77518 9.17495 3.74996 9.07938 3.75002H4.92046C4.82489 3.74996 4.73101 3.77518 4.64834 3.82312C4.56567 3.87107 4.49715 3.94004 4.44975 4.02302L3.52134 5.64802C3.47429 5.73039 3.44969 5.82366 3.45001 5.91852C3.45033 6.01337 3.47556 6.10648 3.52316 6.18853C3.57077 6.27057 3.63908 6.33868 3.72127 6.38603C3.80346 6.43338 3.89665 6.45832 3.9915 6.45835H10.0083C10.1032 6.45832 10.1964 6.43338 10.2786 6.38603C10.3608 6.33868 10.4291 6.27057 10.4767 6.18853C10.5243 6.10648 10.5495 6.01337 10.5498 5.91852C10.5501 5.82366 10.5256 5.73039 10.4785 5.64802ZM3.20825 8.64614V8.26698C3.20823 8.22006 3.22039 8.17393 3.24356 8.13313C3.26672 8.09232 3.30009 8.05823 3.34039 8.0342C3.3807 8.01017 3.42655 7.99703 3.47346 7.99605C3.52038 7.99508 3.56674 8.00631 3.608 8.02865L5.09325 8.83031C5.29529 8.93973 5.21134 9.24685 4.98167 9.23765L3.72825 9.18727C3.58857 9.18168 3.45646 9.1223 3.35954 9.02155C3.26263 8.9208 3.20842 8.78648 3.20825 8.64669V8.64614ZM10.7916 8.26698V8.64614C10.7917 8.78613 10.7376 8.92072 10.6407 9.0217C10.5437 9.12268 10.4115 9.18221 10.2716 9.18781L9.01817 9.23765C8.7885 9.24685 8.704 8.93973 8.90659 8.83031L10.3918 8.02865C10.4331 8.00631 10.4795 7.99508 10.5264 7.99605C10.5733 7.99703 10.6191 8.01017 10.6594 8.0342C10.6997 8.05823 10.7331 8.09232 10.7563 8.13313C10.7794 8.17393 10.7916 8.22006 10.7916 8.26698Z" fill="#093642"/>
</g>
<defs>
<clipPath id="clip0_125_135">
<rect width="13" height="13" fill="white" transform="translate(0.5 0.5)"/>
</clipPath>
</defs>
</svg>
