<svg width="24" height="24" viewBox="0 0 24 24" fill="none" xmlns="http://www.w3.org/2000/svg">
<path d="M8.79526 12.0057L17.2873 20.7327C17.3572 20.803 17.4125 20.8865 17.4499 20.9784C17.4873 21.0702 17.5062 21.1685 17.5053 21.2677C17.5045 21.3669 17.484 21.4649 17.4451 21.5561C17.4061 21.6473 17.3495 21.7298 17.2784 21.799C17.2073 21.8682 17.1232 21.9225 17.031 21.959C16.9388 21.9954 16.8402 22.0132 16.7411 22.0113C16.6419 22.0095 16.5442 21.9879 16.4534 21.948C16.3626 21.9081 16.2807 21.8505 16.2123 21.7787L7.21226 12.5287C7.07604 12.3887 6.99982 12.2011 6.99982 12.0057C6.99982 11.8104 7.07604 11.6227 7.21226 11.4827L16.2123 2.23271C16.2807 2.16089 16.3626 2.10336 16.4534 2.06343C16.5442 2.0235 16.6419 2.00196 16.7411 2.00008C16.8402 1.99819 16.9388 2.01598 17.031 2.05243C17.1232 2.08888 17.2073 2.14325 17.2784 2.21241C17.3495 2.28157 17.4061 2.36413 17.4451 2.45533C17.484 2.54653 17.5045 2.64454 17.5053 2.74371C17.5062 2.84287 17.4873 2.94122 17.4499 3.03305C17.4125 3.12488 17.3572 3.20838 17.2873 3.27871L8.79526 12.0057Z" fill="#093642"/>
</svg>
