<svg width="14" height="14" viewBox="0 0 14 14" fill="none" xmlns="http://www.w3.org/2000/svg">
<path d="M11.4688 6.35762C11.2126 6.24519 10.9359 6.18726 10.6562 6.1875H3.34375C3.06407 6.18723 2.78739 6.24507 2.53125 6.35736C2.16923 6.51568 1.86118 6.77603 1.64473 7.1066C1.42829 7.43717 1.31285 7.82363 1.3125 8.21875V11.0625C1.3125 11.1702 1.3553 11.2736 1.43149 11.3498C1.50767 11.4259 1.61101 11.4688 1.71875 11.4688C1.82649 11.4688 1.92983 11.4259 2.00601 11.3498C2.0822 11.2736 2.125 11.1702 2.125 11.0625V10.8594C2.12566 10.8057 2.14727 10.7544 2.18522 10.7165C2.22317 10.6785 2.27446 10.6569 2.32812 10.6562H11.6719C11.7255 10.6569 11.7768 10.6785 11.8148 10.7165C11.8527 10.7544 11.8743 10.8057 11.875 10.8594V11.0625C11.875 11.1702 11.9178 11.2736 11.994 11.3498C12.0702 11.4259 12.1735 11.4688 12.2812 11.4688C12.389 11.4688 12.4923 11.4259 12.5685 11.3498C12.6447 11.2736 12.6875 11.1702 12.6875 11.0625V8.21875C12.6871 7.82367 12.5716 7.43726 12.3552 7.10675C12.1388 6.77623 11.8307 6.51591 11.4688 6.35762ZM10.0469 2.53125H3.95312C3.57602 2.53125 3.21436 2.68105 2.94771 2.94771C2.68105 3.21436 2.53125 3.57602 2.53125 3.95312V5.78125C2.53126 5.79699 2.53493 5.81251 2.54197 5.82659C2.549 5.84066 2.55922 5.85291 2.5718 5.86237C2.58438 5.87182 2.59899 5.87823 2.61447 5.88107C2.62995 5.88391 2.64588 5.88312 2.661 5.87875C2.88277 5.81388 3.11268 5.78105 3.34375 5.78125H3.45115C3.47622 5.78141 3.50046 5.77229 3.51921 5.75565C3.53796 5.73901 3.5499 5.71602 3.55271 5.69111C3.57487 5.49261 3.66938 5.30922 3.81817 5.17597C3.96697 5.04272 4.15964 4.96895 4.35938 4.96875H5.78125C5.98112 4.96877 6.17397 5.04245 6.32293 5.17572C6.47189 5.30898 6.5665 5.49248 6.58867 5.69111C6.59149 5.71602 6.60342 5.73901 6.62217 5.75565C6.64092 5.77229 6.66517 5.78141 6.69023 5.78125H7.31129C7.33636 5.78141 7.3606 5.77229 7.37935 5.75565C7.3981 5.73901 7.41003 5.71602 7.41285 5.69111C7.435 5.49274 7.52939 5.30945 7.67803 5.17622C7.82666 5.04299 8.01914 4.96914 8.21875 4.96875H9.64062C9.8405 4.96877 10.0333 5.04245 10.1823 5.17572C10.3313 5.30898 10.4259 5.49248 10.448 5.69111C10.4509 5.71602 10.4628 5.73901 10.4815 5.75565C10.5003 5.77229 10.5245 5.78141 10.5496 5.78125H10.6562C10.8873 5.78114 11.1172 5.81406 11.339 5.879C11.3541 5.88338 11.3701 5.88417 11.3856 5.88131C11.4011 5.87845 11.4157 5.87203 11.4283 5.86255C11.4409 5.85306 11.4511 5.84078 11.4581 5.82667C11.4651 5.81256 11.4688 5.79701 11.4688 5.78125V3.95312C11.4688 3.57602 11.3189 3.21436 11.0523 2.94771C10.7856 2.68105 10.424 2.53125 10.0469 2.53125Z" fill="#093642"/>
</svg>
