<svg width="16" height="16" viewBox="0 0 16 16" fill="none" xmlns="http://www.w3.org/2000/svg">
<path d="M8.16283 2.66663C8.51883 2.66863 9.4095 2.67729 10.3562 2.71529L10.6922 2.72996C11.6448 2.77463 12.5968 2.85196 13.0695 2.98329C13.6995 3.16063 14.1942 3.67663 14.3615 4.33129C14.6282 5.37129 14.6615 7.39929 14.6655 7.89063L14.6662 7.99196V8.10796C14.6615 8.59929 14.6282 10.628 14.3615 11.6673C14.1922 12.324 13.6968 12.8406 13.0695 13.0153C12.5968 13.1466 11.6448 13.224 10.6922 13.2686L10.3562 13.284C9.4095 13.3213 8.51883 13.3306 8.16283 13.332L8.00616 13.3326H7.83616C7.08283 13.328 3.93216 13.294 2.9295 13.0153C2.30016 12.838 1.80483 12.322 1.6375 11.6673C1.37083 10.6273 1.3375 8.59929 1.3335 8.10796V7.89063C1.3375 7.39929 1.37083 5.37063 1.6375 4.33129C1.80683 3.67463 2.30216 3.15796 2.93016 2.98396C3.93216 2.70463 7.0835 2.67063 7.83683 2.66663H8.16283ZM6.66616 5.66663V10.3333L10.6662 7.99996L6.66616 5.66663Z" fill="#093642"/>
</svg>
